#!OML:ASF X:\für Bonn\!DataBase\2005_08_11_Bastian_Final\c3d\Bastian.ASF
:FULLY-SPECIFIED
:DEGREES
126
root -0.133606 11.1785 6.46658 172.405 -7.50335 -176.261
lowerback 26.5138 -1.63498 1.2805
upperback 5.5637 -2.99837 -0.224263
thorax -8.56015 -1.9543 0.0807427
lowerneck -10.4615 -6.7514 -2.62883
upperneck -10.4774 -9.76812 12.3517
head -0.767904 -5.55551 4.22421
rclavicle -1.82882e-014 2.3059e-014
rhumerus 68.7301 7.33377 -0.591327
rradius 38.2023
rwrist -49.9845
rhand -44.9349 -5.5855
rfingers 7.12502
rthumb -17.721 -34.798
lclavicle -1.82882e-014 2.3059e-014
lhumerus 65.3333 -9.781 -6.79288
lradius 32.001
lwrist 3.08783
lhand -45.0768 13.3315
lfingers 7.12502
lthumb -17.8576 42.5316
rfemur -49.5682 -19.8498 27.449
rtibia 120.784
rfoot -42.3921 -5.79035
rtoes -2.34378
lfemur -52.8831 6.95218 -14.4852
ltibia 122.586
lfoot -36.2132 -16.2129
ltoes -9.27045
127
root -0.133301 11.4081 6.4574 172.549 -7.55705 -176.347
lowerback 26.2166 -1.63242 1.17938
upperback 5.56304 -3.01313 -0.237131
thorax -8.40763 -1.95429 0.115728
lowerneck -10.4135 -6.74854 -2.61493
upperneck -10.4282 -9.75642 12.2882
head -0.764982 -5.54324 4.20019
rclavicle 4.96962e-015 -1.11319e-014
rhumerus 68.7871 7.56364 -1.14958
rradius 38.0985
rwrist -49.4167
rhand -44.8472 -5.62617
rfingers 7.12502
rthumb -17.6366 -34.8463
lclavicle 4.96962e-015 -1.11319e-014
lhumerus 65.4023 -9.79283 -6.49346
lradius 32.0068
lwrist 2.66961
lhand -44.9325 13.2553
lfingers 7.12502
lthumb -17.7187 42.468
rfemur -48.4716 -19.0872 27.3674
rtibia 118.537
rfoot -42.0284 -6.15263
rtoes -2.55633
lfemur -51.7458 6.12632 -14.7399
ltibia 120.38
lfoot -35.9244 -15.6668
ltoes -9.16167
128
root -0.132672 11.6381 6.4468 172.683 -7.60997 -176.43
lowerback 25.9291 -1.64086 1.08014
upperback 5.55625 -3.04096 -0.259101
thorax -8.26735 -1.96036 0.1443
lowerneck -10.3862 -6.74728 -2.61432
upperneck -10.3416 -9.74679 12.261
head -0.743194 -5.5298 4.18877
rclavicle 1.33186e-014 -1.74931e-014
rhumerus 68.8673 7.82034 -1.86972
rradius 37.9421
rwrist -48.7409
rhand -44.7417 -5.61649
rfingers 7.12502
rthumb -17.5351 -34.8457
lclavicle 1.33186e-014 -1.74931e-014
lhumerus 65.4512 -9.80116 -6.07782
lradius 31.977
lwrist 2.07965
lhand -44.7152 13.1146
lfingers 7.12502
lthumb -17.5096 42.3461
rfemur -47.3406 -18.3701 27.2716
rtibia 116.259
rfoot -41.6756 -6.45722
rtoes -2.6628
lfemur -50.5725 5.38756 -14.9671
ltibia 118.127
lfoot -35.6364 -15.1772
ltoes -8.91816
129
root -0.132858 11.8647 6.43623 172.836 -7.67593 -176.469
lowerback 25.6111 -1.666 1.02353
upperback 5.54754 -3.07575 -0.265426
thorax -8.11431 -1.97 0.166382
lowerneck -10.407 -6.7429 -2.59445
upperneck -10.231 -9.73741 12.2035
head -0.708113 -5.51464 4.16011
rclavicle 2.20651e-014 3.97569e-015
rhumerus 68.9418 8.07757 -2.60047
rradius 37.8203
rwrist -48.1976
rhand -44.7017 -5.48622
rfingers 7.12502
rthumb -17.4966 -34.7188
lclavicle 2.20651e-014 3.97569e-015
lhumerus 65.4856 -9.81865 -5.69808
lradius 31.9445
lwrist 1.48449
lhand -44.5135 12.9294
lfingers 7.12502
lthumb -17.3155 42.178
rfemur -46.2555 -17.7431 27.2168
rtibia 113.974
rfoot -41.3334 -6.72078
rtoes -2.95077
lfemur -49.4498 4.72763 -15.1372
ltibia 115.861
lfoot -35.3199 -14.757
ltoes -8.48702
130
root -0.133139 12.0949 6.4247 172.976 -7.72247 -176.485
lowerback 25.2943 -1.68022 0.991101
upperback 5.52378 -3.08596 -0.261128
thorax -7.97846 -1.96725 0.178726
lowerneck -10.4124 -6.74819 -2.57748
upperneck -10.1113 -9.73839 12.147
head -0.67167 -5.50339 4.13217
rclavicle -1.80894e-014 -2.22639e-014
rhumerus 68.9885 8.3899 -3.23813
rradius 37.725
rwrist -47.7722
rhand -44.7042 -5.33518
rfingers 7.12502
rthumb -17.499 -34.5676
lclavicle -1.80894e-014 -2.22639e-014
lhumerus 65.555 -9.88978 -5.37672
lradius 31.9476
lwrist 0.956501
lhand -44.3153 12.7956
lfingers 7.12502
lthumb -17.1247 42.061
rfemur -45.108 -17.1463 27.1826
rtibia 111.628
rfoot -40.9716 -7.01447
rtoes -3.20529
lfemur -48.2523 4.17411 -15.2639
ltibia 113.521
lfoot -34.9915 -14.3882
ltoes -7.93179
131
root -0.133512 12.3273 6.41273 173.12 -7.7814 -176.504
lowerback 24.9179 -1.71168 0.965657
upperback 5.51876 -3.11947 -0.266466
thorax -7.7921 -1.97668 0.180364
lowerneck -10.4389 -6.73998 -2.59467
upperneck -10.0003 -9.72116 12.1268
head -0.632025 -5.48402 4.12371
rclavicle -2.18663e-015 -2.14687e-014
rhumerus 69.0451 8.69127 -3.9728
rradius 37.6368
rwrist -47.3558
rhand -44.6983 -5.12041
rfingers 7.12502
rthumb -17.4934 -34.3533
lclavicle -2.18663e-015 -2.14687e-014
lhumerus 65.6018 -9.98259 -5.26241
lradius 31.9868
lwrist 0.622555
lhand -44.129 12.6012
lfingers 7.12502
lthumb -16.9454 41.882
rfemur -43.9334 -16.6019 27.132
rtibia 109.237
rfoot -40.5894 -7.26361
rtoes -3.44702
lfemur -47.0098 3.64332 -15.3787
ltibia 111.106
lfoot -34.6564 -14.0808
ltoes -7.19743
132
root -0.133913 12.5591 6.39958 173.275 -7.84117 -176.568
lowerback 24.5337 -1.72592 0.903518
upperback 5.49619 -3.13691 -0.284527
thorax -7.61977 -1.97629 0.1839
lowerneck -10.4885 -6.74665 -2.58714
upperneck -9.84538 -9.72569 12.0947
head -0.574298 -5.47225 4.10267
rclavicle 1.23246e-014 -2.94201e-014
rhumerus 69.0424 9.05341 -4.6834
rradius 37.5795
rwrist -46.9942
rhand -44.7154 -4.93103
rfingers 7.12502
rthumb -17.5098 -34.1625
lclavicle 1.23246e-014 -2.94201e-014
lhumerus 65.67 -10.1119 -5.01675
lradius 32.0167
lwrist 0.173081
lhand -43.9284 12.3849
lfingers 7.12502
lthumb -16.7522 41.6822
rfemur -42.7499 -16.0703 27.0181
rtibia 106.817
rfoot -40.2202 -7.42376
rtoes -3.47763
lfemur -45.7596 3.16742 -15.5357
ltibia 108.639
lfoot -34.2818 -13.7657
ltoes -6.58851
133
root -0.134371 12.7866 6.38651 173.46 -7.91161 -176.677
lowerback 24.1309 -1.73904 0.774515
upperback 5.47703 -3.16859 -0.294798
thorax -7.43022 -1.98185 0.237206
lowerneck -10.6206 -6.74293 -2.59999
upperneck -9.6619 -9.71931 12.0592
head -0.493307 -5.45226 4.08032
rclavicle 2.44505e-014 1.27222e-014
rhumerus 69.0514 9.4341 -5.54988
rradius 37.5097
rwrist -46.482
rhand -44.6747 -4.70545
rfingers 7.12502
rthumb -17.4706 -33.9404
lclavicle 2.44505e-014 1.27222e-014
lhumerus 65.7259 -10.2686 -4.84475
lradius 32.0534
lwrist -0.0182491
lhand -43.8341 12.0751
lfingers 7.12502
lthumb -16.6615 41.38
rfemur -41.594 -15.5406 26.8472
rtibia 104.393
rfoot -39.8353 -7.46625
rtoes -3.30493
lfemur -44.5331 2.71232 -15.7417
ltibia 106.141
lfoot -33.9184 -13.3735
ltoes -6.502
